# xmcd
#
# Track frame offsets: 
#        150
#        13665
#        26295
#        38590
#        49792
#        61842
#        73905
#        85947
#        99030
#        111070
#        123355
#        135900
#        147665
#        160875
#        176170
#        185865
#        196947
#        205642
#        216710
#        228885
#        237902
#        247757
#        258500
#        270290
#        281322
#        292020
#        304705
#        318905
#
# Disc length: 4429 seconds
#
# Revision: 1
# Processed by: cddbd v1.5.1PL0 Copyright (c) Steve Scherf et al.
# Submitted via: ExactAudioCopy v0.90b4
#
DISCID=89114b1c
DTITLE=Big Joe Turner - Joe Turner and Rockin' the Blues
DYEAR=2000
DGENRE=R&B
TTITLE0=Shake, Rattle and Roll
TTITLE1=Flip, Flop and Fly
TTITLE2=Feeling Happy
TTITLE3=Well, All Right
TTITLE4=The Chicken and the Hawk
TTITLE5=Boogie Woogie Country Girl
TTITLE6=Honey Hush
TTITLE7=Corrine, Corrina
TTITLE8=Midnight Special Train
TTITLE9=Hide and Seek
TTITLE10=Oke-She-Moke-She-Pop
TTITLE11=Crawdad Hole
TTITLE12=Sweet Sixteen
TTITLE13=Chains of Love
TTITLE14=(We're Gonna) Jump for Joy
TTITLE15=Teen Age Letter
TTITLE16=Love Roller Coaster
TTITLE17=Lipstick, Powder and Paint
TTITLE18=Morning, Noon and Night
TTITLE19=I Need a Girl
TTITLE20=Red Sails in the Sunset
TTITLE21=Blues in the Night
TTITLE22=After a While
TTITLE23=World of Trouble
TTITLE24=Trouble in Mind
TTITLE25=TV Mama
TTITLE26=You Know I Love You
TTITLE27=Still in Love
EXTD=Joe Turner - Rockin' The Blues
EXTT0=
EXTT1=
EXTT2=
EXTT3=
EXTT4=
EXTT5=
EXTT6=
EXTT7=
EXTT8=
EXTT9=
EXTT10=
EXTT11=
EXTT12=
EXTT13=
EXTT14=
EXTT15=
EXTT16=
EXTT17=
EXTT18=
EXTT19=
EXTT20=
EXTT21=
EXTT22=
EXTT23=
EXTT24=
EXTT25=
EXTT26=
EXTT27=
PLAYORDER=
